To the outer world CHRIS KARAS is a shy, handsome, "A" student, the son of a hard-working Greek contractor.

Genre:Comedy
Language: English  http://www.imdb.com/title/tt1268981/
Source:DvDScr

General
Complete name :The.Prankster.2010.DvDScr.XviD.Feel-Free.avi
Format : AVI
Format/Info : Audio Video Interleave
File size : 877 MiB
Duration : 1h 57mn
Overall bit rate : 1 048 Kbps
Video #0
Codec ID : XVID
Codec ID/Hint : XviD
Duration : 1h 57mn
Bit rate : 910 Kbps
Width : 720 pixels
Height : 384 pixels
Display aspect ratio : 1.875
Frame rate : 23.976 fps
Resolution : 24 bits
Colorimetry : 4:2:0
Scan type : Progressive
Bits/(Pixel*Frame) : 0.137
Stream size : 762 MiB (87%)
Writing library : XviD 1.2.1 (UTC 2008-12-04)
Audio #1
ID : 1
Format : MPEG Audio
Format version : Version 1
Format profile : Layer 3
Codec ID : 55
Codec ID/Hint : MP3
Duration : 1h 57mn
Bit rate mode : Constant
Bit rate : 128 Kbps
Channel(s) : 2 channels
Sampling rate : 48.0 KHz
Resolution : 16 bits
Stream size : 107 MiB (12%)
Alignment : Aligned on interleaves
Interleave, duration : 42 ms (1.00 video frame)
Interleave, preload duration : 504 ms
Writing library : LAME3.97